<svg width="90" height="99" viewBox="0 0 90 99" fill="none" xmlns="http://www.w3.org/2000/svg">
<g filter="url(#filter0_d_242_443)">
<path fill-rule="evenodd" clip-rule="evenodd" d="M28.3184 76.7727C33.076 79.7727 38.6063 81.2727 44.9093 81.2727C51.2123 81.2727 56.7275 79.7727 61.4548 76.7727C66.2123 73.7727 69.9093 69.5758 72.5457 64.1818C75.2123 58.7879 76.5457 52.4848 76.5457 45.2727C76.5457 38 75.2123 31.6515 72.5457 26.2273C69.9093 20.803 66.2123 16.5909 61.4548 13.5909C56.7275 10.5909 51.2123 9.09091 44.9093 9.09091C38.6063 9.09091 33.076 10.5909 28.3184 13.5909C23.5911 16.5909 19.8942 20.803 17.2275 26.2273C14.5911 31.6515 13.2729 38 13.2729 45.2727C13.2729 52.4848 14.5911 58.7879 17.2275 64.1818C19.8942 69.5758 23.5911 73.7727 28.3184 76.7727ZM80.6313 22.2747C84.0104 29.1561 85.5457 36.907 85.5457 45.2727C85.5457 53.5895 84.006 61.3007 80.6221 68.1532C77.3059 74.9299 72.5232 80.4299 66.2677 84.3777C59.9247 88.4004 52.6952 90.2727 44.9093 90.2727C37.1184 90.2727 29.8814 88.3982 23.5179 84.3856L23.507 84.3787L23.496 84.3717C17.2724 80.4221 12.5003 74.9277 9.1596 68.1704L9.15057 68.1522L9.14163 68.1339C5.79465 61.286 4.27295 53.5823 4.27295 45.2727C4.27295 36.9137 5.79053 29.17 9.13293 22.293L9.14181 22.2748L9.15076 22.2566C12.4875 15.4693 17.2598 9.94953 23.496 5.99194L23.507 5.98499L23.5179 5.97806C29.8814 1.96544 37.1184 0.0909119 44.9093 0.0909119C52.6942 0.0909119 59.9228 1.96281 66.2652 5.98433C72.5349 9.94053 77.3187 15.4668 80.6313 22.2747ZM56.7275 67.9545C53.6366 70.4091 49.6972 71.6364 44.9093 71.6364C40.1214 71.6364 36.182 70.4091 33.0911 67.9545C30.0002 65.5 27.7123 62.2727 26.2275 58.2727C24.7426 54.2727 24.0002 49.9394 24.0002 45.2727C24.0002 40.6061 24.7426 36.2576 26.2275 32.2273C27.7123 28.197 30.0002 24.9394 33.0911 22.4545C36.182 19.9697 40.1214 18.7273 44.9093 18.7273C49.6972 18.7273 53.6366 19.9697 56.7275 22.4545C59.8184 24.9394 62.1063 28.197 63.5911 32.2273C65.076 36.2576 65.8184 40.6061 65.8184 45.2727C65.8184 49.9394 65.076 54.2727 63.5911 58.2727C62.1063 62.2727 59.8184 65.5 56.7275 67.9545ZM44.9093 62.6364C48.1116 62.6364 49.9492 61.8446 51.1306 60.9065C52.8311 59.5561 54.1926 57.7299 55.1537 55.1406C56.2331 52.2328 56.8184 48.9705 56.8184 45.2727C56.8184 41.5758 56.2333 38.2898 55.146 35.3386C54.1769 32.7081 52.8024 30.8468 51.0885 29.4689C49.9084 28.5202 48.0863 27.7273 44.9093 27.7273C41.7323 27.7273 39.9102 28.5202 38.7301 29.4689C37.0162 30.8468 35.6417 32.7081 34.6726 35.3386C33.5853 38.2898 33.0002 41.5758 33.0002 45.2727C33.0002 48.9705 33.5855 52.2328 34.6649 55.1407C35.6261 57.7299 36.9875 59.5561 38.6881 60.9065C39.8694 61.8446 41.707 62.6364 44.9093 62.6364Z" fill="url(#paint0_linear_242_443)"/>
</g>
<defs>
<filter id="filter0_d_242_443" x="0.272949" y="0.0909119" width="89.2729" height="98.1818" filterUnits="userSpaceOnUse" color-interpolation-filters="sRGB">
<feFlood flood-opacity="0" result="BackgroundImageFix"/>
<feColorMatrix in="SourceAlpha" type="matrix" values="0 0 0 0 0 0 0 0 0 0 0 0 0 0 0 0 0 0 127 0" result="hardAlpha"/>
<feOffset dy="4"/>
<feGaussianBlur stdDeviation="2"/>
<feComposite in2="hardAlpha" operator="out"/>
<feColorMatrix type="matrix" values="0 0 0 0 0 0 0 0 0 0 0 0 0 0 0 0 0 0 0.25 0"/>
<feBlend mode="normal" in2="BackgroundImageFix" result="effect1_dropShadow_242_443"/>
<feBlend mode="normal" in="SourceGraphic" in2="effect1_dropShadow_242_443" result="shape"/>
</filter>
<linearGradient id="paint0_linear_242_443" x1="212.227" y1="-44.1818" x2="212.227" y2="110.818" gradientUnits="userSpaceOnUse">
<stop stop-color="#EEA325"/>
<stop offset="0.515625" stop-color="#FF6000"/>
<stop offset="1" stop-color="#FF0000"/>
</linearGradient>
</defs>
</svg>
