        <svg class="twitter" width="40" height="40" viewBox="0 0 40 40" fill="none" xmlns="http://www.w3.org/2000/svg">
          <path
            d="M38.3334 5.00016C36.7374 6.12595 34.9703 6.98701 33.1001 7.55016C32.0963 6.39601 30.7623 5.57798 29.2785 5.2067C27.7946 4.83543 26.2326 4.92882 24.8036 5.47425C23.3745 6.01968 22.1475 6.99083 21.2884 8.25635C20.4293 9.52188 19.9796 11.0207 20.0001 12.5502V14.2168C17.0711 14.2928 14.1689 13.6432 11.5518 12.3259C8.93465 11.0086 6.68394 9.06455 5.00008 6.66682C5.00008 6.66682 -1.66659 21.6668 13.3334 28.3335C9.90096 30.6634 5.81201 31.8317 1.66675 31.6668C16.6667 40.0002 35.0001 31.6668 35.0001 12.5002C34.9985 12.0359 34.9539 11.5728 34.8667 11.1168C36.5678 9.43931 37.7681 7.32135 38.3334 5.00016Z"
            stroke="white" stroke-width="2" stroke-linecap="round" stroke-linejoin="round" />
        </svg>