<svg class="user-svg" width="60" height="61" viewBox="0 0 60 61" fill="none"
xmlns="http://www.w3.org/2000/svg">
<path
  d="M50 53V48C50 45.3478 48.9464 42.8043 47.0711 40.9289C45.1957 39.0536 42.6522 38 40 38H20C17.3478 38 14.8043 39.0536 12.9289 40.9289C11.0536 42.8043 10 45.3478 10 48V53"
  stroke="white" stroke-width="2" stroke-linecap="round" stroke-linejoin="round" />
<path
  d="M30 28C35.5228 28 40 23.5228 40 18C40 12.4772 35.5228 8 30 8C24.4772 8 20 12.4772 20 18C20 23.5228 24.4772 28 30 28Z"
  stroke="white" stroke-width="2" stroke-linecap="round" stroke-linejoin="round" />
<path
  d="M30 61.2491C46.5685 61.2491 60 47.8177 60 31.2491C60 14.6806 46.5685 1.24911 30 1.24911C13.4315 1.24911 0 14.6806 0 31.2491C0 47.8177 13.4315 61.2491 30 61.2491Z"
  stroke="white" stroke-width="2" stroke-linecap="round" stroke-linejoin="round" />
</svg>