<svg width="75" height="76" viewBox="0 0 75 76" fill="none" xmlns="http://www.w3.org/2000/svg">
<path d="M23.1 37.7C17.1 34.7 13.05 28.7 13.05 21.5C13.05 11.6 21.15 3.5 31.05 3.5C40.95 3.5 49.05 11.6 49.05 21.5C49.05 31.25 41.4 39.2 31.65 39.5H31.5C16.65 39.5 4.5 51.65 4.5 66.5C4.5 67.4 3.9 68 3 68C2.1 68 1.5 67.4 1.5 66.5C1.5 52.85 10.65 41.3 23.1 37.7ZM31.05 36.5C39.3 36.5 46.05 29.75 46.05 21.5C46.05 13.25 39.3 6.5 31.05 6.5C22.8 6.5 16.05 13.25 16.05 21.5C16.05 29.75 22.8 36.5 31.05 36.5ZM72.15 46.4L72.45 47.15L68.85 51.5C68.25 52.25 68.25 53.45 68.85 54.2L72.45 58.4L72.15 59.15C71.4 61.25 70.35 63.35 68.85 65L68.25 65.6L62.7 64.7C61.8 64.55 60.75 65.15 60.45 66.05L58.5 71.45L57.75 71.6C54.9 72.2 52.05 72.2 49.2 71.6L48.3 71.45L46.5 66.2C46.2 65.3 45.15 64.7 44.25 64.85L38.55 65.75L37.95 65.15C37.2 64.4 36.6 63.5 36.15 62.6C35.55 61.55 34.95 60.35 34.65 59.15L34.35 58.4L38.1 54.2C38.7 53.45 38.7 52.25 38.1 51.65L34.5 47.3L34.8 46.55C35.55 44.3 36.75 42.35 38.25 40.55L38.85 39.95L44.25 40.85C45.15 41 46.2 40.4 46.65 39.5L48.6 34.25L49.35 34.1C52.05 33.5 54.9 33.5 57.75 34.1L58.65 34.25L60.45 39.35C60.75 40.25 61.8 41 62.85 40.85L68.4 40.1L69 40.7C69.75 41.6 70.35 42.35 70.8 43.4C71.25 44.15 71.7 45.35 72.15 46.4ZM67.95 44.6C67.65 44 67.35 43.55 66.9 42.95L63 43.4C60.6 43.7 58.2 42.2 57.45 39.95L56.25 36.5C54.45 36.2 52.65 36.2 50.85 36.5L49.5 40.1C48.75 42.35 46.2 43.85 43.8 43.4L40.05 42.8C39.15 43.85 38.55 45.2 37.95 46.4L40.5 49.4C42 51.2 42 54.05 40.5 55.85L37.95 58.85C38.25 59.6 38.55 60.2 39 60.95C39.3 61.55 39.6 62 40.05 62.45L44.1 61.85C46.5 61.55 48.9 63.05 49.65 65.3L50.85 68.9C52.65 69.2 54.6 69.2 56.4 68.9L57.75 65.15C58.5 62.9 61.05 61.4 63.3 61.85L67.05 62.45C67.8 61.4 68.55 60.2 69 58.85L66.6 56C65.1 54.2 64.95 51.35 66.45 49.55L69 46.55C68.7 45.95 68.4 45.35 67.95 44.6ZM53.55 59.6C49.8 59.6 46.8 56.6 46.8 52.85C46.8 49.1 49.8 46.1 53.55 46.1C57.3 46.1 60.3 49.1 60.3 52.85C60.3 56.6 57.15 59.6 53.55 59.6ZM53.55 56.6C55.65 56.6 57.3 54.95 57.3 52.85C57.3 50.75 55.65 49.1 53.55 49.1C51.45 49.1 49.8 50.75 49.8 52.85C49.8 54.95 51.45 56.6 53.55 56.6Z" fill="black"/>
</svg>
