<svg width="88" height="122" viewBox="0 0 88 122" fill="none" xmlns="http://www.w3.org/2000/svg">
<g filter="url(#filter0_d_242_441)">
<path fill-rule="evenodd" clip-rule="evenodd" d="M22.2756 107.364L22.2579 107.352C16.2812 103.368 11.7711 97.8389 8.63885 91.1216L8.63478 91.1129L8.63072 91.1042C5.45126 84.2472 4.02295 76.4907 4.02295 68.0909C4.02295 59.7415 5.4548 52.025 8.63885 45.1965C11.7812 38.4576 16.327 32.9282 22.3622 28.9726C28.4534 24.9804 35.3852 23.0909 42.8411 23.0909C47.0235 23.0909 51.1749 23.6166 54.9321 25.0601V0.727264H83.6593V111.818H55.2957V111.106C51.3951 112.687 47.0595 113.273 42.6593 113.273C35.2445 113.273 28.3514 111.373 22.2934 107.376L22.2756 107.364ZM64.2957 102.818H74.6593V9.72726H63.9321V44.0909H63.023C62.2351 42.8788 61.129 41.3333 59.7048 39.4545C59.635 39.359 59.5637 39.264 59.4908 39.1696C59.4805 39.1563 59.4703 39.1431 59.46 39.1299C58.3291 37.6764 56.8198 36.349 54.9321 35.1478C54.5114 34.8801 54.072 34.6188 53.6138 34.3636C53.395 34.2379 53.1696 34.1173 52.9376 34.002C50.3748 32.7279 47.0093 32.0909 42.8411 32.0909C36.9623 32.0909 31.7805 33.5606 27.2957 36.5C22.8108 39.4394 19.3108 43.6061 16.7957 49C14.2805 54.3939 13.0229 60.7576 13.0229 68.0909C13.0229 75.4848 14.2805 81.8939 16.7957 87.3182C19.3108 92.7121 22.7957 96.8939 27.2502 99.8636C31.7048 102.803 36.8411 104.273 42.6593 104.273C46.8047 104.273 50.1863 103.638 52.8042 102.37C53.0186 102.266 53.2279 102.158 53.4321 102.045C54.0903 101.676 54.7115 101.294 55.2957 100.901C57.0011 99.7529 58.3913 98.5049 59.4661 97.1569C59.4763 97.1441 59.4866 97.1313 59.4967 97.1184C59.5517 97.0489 59.6059 96.9791 59.6593 96.9091C61.1138 94.9697 62.2351 93.3636 63.023 92.0909H64.2957V102.818ZM53.5547 92.258C54.061 91.9579 54.5504 91.6295 55.023 91.2727C55.9863 90.5355 56.8746 89.7074 57.6881 88.7884C59.1199 87.1708 60.3197 85.2716 61.2872 83.0909C61.4645 82.6913 61.634 82.2822 61.7957 81.8636C63.3411 77.8333 64.1138 73.1818 64.1138 67.9091C64.1138 62.697 63.3563 58.1364 61.8411 54.2273C61.6922 53.84 61.5362 53.4612 61.3732 53.0909C60.423 50.9326 59.2341 49.0629 57.8064 47.4816C56.9875 46.5746 56.09 45.7626 55.1138 45.0454C54.6358 44.6893 54.1396 44.3619 53.6254 44.0631C53.5822 44.038 53.5389 44.0131 53.4954 43.9884C52.2664 43.2899 50.9355 42.7532 49.5026 42.3784C47.8431 41.9443 46.0469 41.7273 44.1138 41.7273C39.5684 41.7273 35.7805 42.8939 32.7502 45.2273C29.7502 47.5303 27.4926 50.6667 25.9775 54.6364C24.4926 58.5758 23.7502 63 23.7502 67.9091C23.7502 72.8788 24.5078 77.3939 26.0229 81.4545C27.5684 85.4848 29.8411 88.697 32.8411 91.0909C35.8714 93.4545 39.629 94.6364 44.1138 94.6364C45.9992 94.6364 47.7566 94.4211 49.386 93.9906C50.8626 93.6005 52.2341 93.0336 53.5005 92.29C53.5186 92.2794 53.5367 92.2687 53.5547 92.258ZM49.5765 84.1076C48.4068 84.9833 46.7607 85.6364 44.1138 85.6364C41.3146 85.6364 39.6057 84.9402 38.4133 84.023C36.8414 82.7563 35.4748 80.95 34.4408 78.2699C33.3609 75.3601 32.7502 71.9423 32.7502 67.9091C32.7502 63.9156 33.352 60.5958 34.3927 57.8278C35.3886 55.2265 36.7128 53.5315 38.2307 52.3662L38.2411 52.3582C39.4158 51.4537 41.1673 50.7273 44.1138 50.7273C46.8974 50.7273 48.5852 51.4048 49.7374 52.2631L49.7612 52.2808L49.7852 52.2984C51.1742 53.3189 52.4518 54.8861 53.441 57.4581L53.4452 57.469L53.4494 57.4799C54.478 60.1334 55.1138 63.5485 55.1138 67.9091C55.1138 72.3108 54.4685 75.8299 53.3967 78.6299C52.3651 81.2956 51.0354 82.9841 49.5765 84.1076Z" fill="url(#paint0_linear_242_441)"/>
</g>
<defs>
<filter id="filter0_d_242_441" x="0.0229492" y="0.727264" width="87.6362" height="120.545" filterUnits="userSpaceOnUse" color-interpolation-filters="sRGB">
<feFlood flood-opacity="0" result="BackgroundImageFix"/>
<feColorMatrix in="SourceAlpha" type="matrix" values="0 0 0 0 0 0 0 0 0 0 0 0 0 0 0 0 0 0 127 0" result="hardAlpha"/>
<feOffset dy="4"/>
<feGaussianBlur stdDeviation="2"/>
<feComposite in2="hardAlpha" operator="out"/>
<feColorMatrix type="matrix" values="0 0 0 0 0 0 0 0 0 0 0 0 0 0 0 0 0 0 0.25 0"/>
<feBlend mode="normal" in2="BackgroundImageFix" result="effect1_dropShadow_242_441"/>
<feBlend mode="normal" in="SourceGraphic" in2="effect1_dropShadow_242_441" result="shape"/>
</filter>
<linearGradient id="paint0_linear_242_441" x1="59.2275" y1="-21.1818" x2="59.2275" y2="133.818" gradientUnits="userSpaceOnUse">
<stop stop-color="#EEA325"/>
<stop offset="0.515625" stop-color="#FF6000"/>
<stop offset="1" stop-color="#FF0000"/>
</linearGradient>
</defs>
</svg>
