<svg width="90" height="99" viewBox="0 0 90 99" fill="none" xmlns="http://www.w3.org/2000/svg">
<g filter="url(#filter0_d_242_442)">
<path fill-rule="evenodd" clip-rule="evenodd" d="M28.6934 76.7727C33.451 79.7727 38.9813 81.2727 45.2843 81.2727C51.5873 81.2727 57.1025 79.7727 61.8298 76.7727C66.5873 73.7727 70.2843 69.5758 72.9207 64.1818C75.5873 58.7879 76.9207 52.4848 76.9207 45.2727C76.9207 38 75.5873 31.6515 72.9207 26.2273C70.2843 20.803 66.5873 16.5909 61.8298 13.5909C57.1025 10.5909 51.5873 9.09091 45.2843 9.09091C38.9813 9.09091 33.451 10.5909 28.6934 13.5909C23.9661 16.5909 20.2692 20.803 17.6025 26.2273C14.9661 31.6515 13.6479 38 13.6479 45.2727C13.6479 52.4848 14.9661 58.7879 17.6025 64.1818C20.2692 69.5758 23.9661 73.7727 28.6934 76.7727ZM66.6402 5.98433C60.2978 1.96281 53.0692 0.0909119 45.2843 0.0909119C37.4934 0.0909119 30.2564 1.96544 23.8929 5.97806L23.882 5.98499L23.871 5.99194C17.6348 9.94953 12.8625 15.4693 9.52576 22.2566L9.5168 22.2748L9.50793 22.293C6.16553 29.17 4.64795 36.9137 4.64795 45.2727C4.64795 53.5823 6.16965 61.286 9.51663 68.1339L9.52557 68.1522L9.53461 68.1704C12.8753 74.9277 17.6474 80.4221 23.871 84.3717L23.882 84.3787L23.8929 84.3856C30.2564 88.3982 37.4934 90.2727 45.2843 90.2727C53.0702 90.2727 60.2997 88.4004 66.6427 84.3777C72.8982 80.4299 77.6809 74.9299 80.9971 68.1532C84.381 61.3007 85.9207 53.5895 85.9207 45.2727C85.9207 36.907 84.3854 29.1561 81.0063 22.2747C77.6937 15.4668 72.9099 9.94053 66.6402 5.98433ZM57.1025 67.9545C54.0116 70.4091 50.0722 71.6364 45.2843 71.6364C40.4964 71.6364 36.557 70.4091 33.4661 67.9545C30.3752 65.5 28.0873 62.2727 26.6025 58.2727C25.1176 54.2727 24.3752 49.9394 24.3752 45.2727C24.3752 40.6061 25.1176 36.2576 26.6025 32.2273C28.0873 28.197 30.3752 24.9394 33.4661 22.4545C36.557 19.9697 40.4964 18.7273 45.2843 18.7273C50.0722 18.7273 54.0116 19.9697 57.1025 22.4545C60.1934 24.9394 62.4813 28.197 63.9661 32.2273C65.451 36.2576 66.1934 40.6061 66.1934 45.2727C66.1934 49.9394 65.451 54.2727 63.9661 58.2727C62.4813 62.2727 60.1934 65.5 57.1025 67.9545ZM45.2843 62.6364C48.4866 62.6364 50.3242 61.8446 51.5056 60.9065C53.2061 59.5561 54.5676 57.7299 55.5287 55.1406C56.6081 52.2328 57.1934 48.9705 57.1934 45.2727C57.1934 41.5758 56.6083 38.2898 55.521 35.3386C54.5519 32.7081 53.1774 30.8468 51.4635 29.4689C50.2834 28.5202 48.4613 27.7273 45.2843 27.7273C42.1073 27.7273 40.2852 28.5202 39.1051 29.4689C37.3912 30.8468 36.0167 32.7081 35.0476 35.3386C33.9603 38.2898 33.3752 41.5758 33.3752 45.2727C33.3752 48.9705 33.9605 52.2328 35.0399 55.1407C36.0011 57.7299 37.3625 59.5561 39.0631 60.9065C40.2444 61.8446 42.082 62.6364 45.2843 62.6364Z" fill="url(#paint0_linear_242_442)"/>
</g>
<defs>
<filter id="filter0_d_242_442" x="0.647949" y="0.0909119" width="89.2729" height="98.1818" filterUnits="userSpaceOnUse" color-interpolation-filters="sRGB">
<feFlood flood-opacity="0" result="BackgroundImageFix"/>
<feColorMatrix in="SourceAlpha" type="matrix" values="0 0 0 0 0 0 0 0 0 0 0 0 0 0 0 0 0 0 127 0" result="hardAlpha"/>
<feOffset dy="4"/>
<feGaussianBlur stdDeviation="2"/>
<feComposite in2="hardAlpha" operator="out"/>
<feColorMatrix type="matrix" values="0 0 0 0 0 0 0 0 0 0 0 0 0 0 0 0 0 0 0.25 0"/>
<feBlend mode="normal" in2="BackgroundImageFix" result="effect1_dropShadow_242_442"/>
<feBlend mode="normal" in="SourceGraphic" in2="effect1_dropShadow_242_442" result="shape"/>
</filter>
<linearGradient id="paint0_linear_242_442" x1="136.227" y1="-44.1818" x2="136.227" y2="110.818" gradientUnits="userSpaceOnUse">
<stop stop-color="#EEA325"/>
<stop offset="0.515625" stop-color="#FF6000"/>
<stop offset="1" stop-color="#FF0000"/>
</linearGradient>
</defs>
</svg>
