<svg width="82" height="97" viewBox="0 0 82 97" fill="none" xmlns="http://www.w3.org/2000/svg">
<g filter="url(#filter0_d_242_439)">
<path fill-rule="evenodd" clip-rule="evenodd" d="M57.5454 50.2727C57.5454 53.1951 57.1173 55.7708 56.2611 58C55.8388 59.0995 55.3124 60.1146 54.6818 61.0455C53.7762 62.4039 52.7649 63.5933 51.6481 64.6138C50.4479 65.7104 49.1259 66.6119 47.6818 67.3182C46.4431 67.9307 45.2136 68.4057 43.9933 68.7431C43.9754 68.748 43.9576 68.7529 43.9398 68.7578C43.9176 68.7638 43.8954 68.7698 43.8733 68.7758C42.4176 69.1677 40.975 69.3636 39.5454 69.3636C35.0909 69.3636 31.4242 67.8485 28.5454 64.8182C25.6969 61.7879 24.2727 57.7273 24.2727 52.6364V9H13.5454V53.3636C13.5454 59.303 14.5151 64.2273 16.4545 68.1364C18.3939 72.0152 21.0606 74.9242 24.4545 76.8636C27.8484 78.7727 31.7272 79.7273 36.0909 79.7273C40.5775 79.7273 44.406 78.8386 47.5762 77.0614C47.9064 76.8763 48.2295 76.6815 48.5454 76.4771C48.7609 76.3377 48.973 76.1938 49.1818 76.0455C49.8844 75.5401 50.5494 75.0128 51.1768 74.4635C51.1857 74.4557 51.1947 74.4478 51.2036 74.44C53.6478 72.2941 55.5193 69.8141 56.8181 67H57.5454V78.8182H68.2727V9H57.5454V50.2727ZM48.5454 86.536V87.8182H77.2727V0H48.5454V50.2727C48.5454 53.3417 47.8801 55.0389 47.2305 55.9978L47.2118 56.0254L47.1933 56.0532C46.115 57.6707 44.9554 58.6328 43.7273 59.2335L43.7098 59.2421L43.6924 59.2507C41.9845 60.0952 40.6302 60.3636 39.5454 60.3636C37.3881 60.3636 36.1423 59.7404 35.0872 58.637C34.1485 57.6302 33.2727 55.9587 33.2727 52.6364V0H4.54541V53.3636C4.54541 60.2154 5.65479 66.6187 8.39221 72.1363L8.39841 72.1488L8.40466 72.1613C11.0484 77.4487 14.8861 81.7617 19.9893 84.6778L20.0157 84.6929L20.0421 84.7078C24.9397 87.4627 30.3716 88.7273 36.0909 88.7273C40.459 88.7273 44.6688 88.0563 48.5454 86.536Z" fill="url(#paint0_linear_242_439)"/>
</g>
<defs>
<filter id="filter0_d_242_439" x="0.54541" y="0" width="80.7271" height="96.7273" filterUnits="userSpaceOnUse" color-interpolation-filters="sRGB">
<feFlood flood-opacity="0" result="BackgroundImageFix"/>
<feColorMatrix in="SourceAlpha" type="matrix" values="0 0 0 0 0 0 0 0 0 0 0 0 0 0 0 0 0 0 127 0" result="hardAlpha"/>
<feOffset dy="4"/>
<feGaussianBlur stdDeviation="2"/>
<feComposite in2="hardAlpha" operator="out"/>
<feColorMatrix type="matrix" values="0 0 0 0 0 0 0 0 0 0 0 0 0 0 0 0 0 0 0.25 0"/>
<feBlend mode="normal" in2="BackgroundImageFix" result="effect1_dropShadow_242_439"/>
<feBlend mode="normal" in="SourceGraphic" in2="effect1_dropShadow_242_439" result="shape"/>
</filter>
<linearGradient id="paint0_linear_242_439" x1="-117.773" y1="-45.1818" x2="-117.773" y2="109.818" gradientUnits="userSpaceOnUse">
<stop stop-color="#EEA325"/>
<stop offset="0.515625" stop-color="#FF6000"/>
<stop offset="1" stop-color="#FF0000"/>
</linearGradient>
</defs>
</svg>
