<svg width="89" height="122" viewBox="0 0 89 122" fill="none" xmlns="http://www.w3.org/2000/svg">
<g filter="url(#filter0_d_242_438)">
<path fill-rule="evenodd" clip-rule="evenodd" d="M4.375 111.818V0.727264H33.1023V25.0496C36.8598 23.6181 41.0056 23.0909 45.1932 23.0909C52.6491 23.0909 59.5809 24.9804 65.6721 28.9726C71.7073 32.9282 76.2531 38.4576 79.3955 45.1965C82.5795 52.025 84.0114 59.7415 84.0114 68.0909C84.0114 76.4907 82.583 84.2472 79.4036 91.1042L79.3995 91.1129L79.3955 91.1216C76.2632 97.8389 71.7531 103.368 65.7764 107.352L65.7587 107.364L65.7409 107.376C59.683 111.373 52.7898 113.273 45.375 113.273C40.9748 113.273 36.6392 112.687 32.7386 111.106V111.818H4.375ZM23.7386 102.818V92.0909H25.0114C25.7992 93.3636 26.9204 94.9697 28.375 96.9091C28.4284 96.9791 28.4826 97.0489 28.5376 97.1184C28.5478 97.1313 28.558 97.1441 28.5682 97.1569C29.643 98.5049 31.0331 99.7529 32.7386 100.901C33.3228 101.294 33.9441 101.676 34.6023 102.045C34.8064 102.158 35.0157 102.266 35.2301 102.37C37.848 103.638 41.2296 104.273 45.375 104.273C51.1931 104.273 56.3296 102.803 60.7841 99.8636C65.2386 96.8939 68.7235 92.7121 71.2386 87.3182C73.7538 81.8939 75.0114 75.4848 75.0114 68.0909C75.0114 60.7576 73.7538 54.3939 71.2386 49C68.7235 43.6061 65.2235 39.4394 60.7386 36.5C56.2538 33.5606 51.072 32.0909 45.1932 32.0909C40.99 32.0909 37.59 32.7387 34.9933 34.0343C34.7819 34.1398 34.5758 34.2495 34.375 34.3636C33.9338 34.6121 33.5095 34.8666 33.1023 35.127C31.2263 36.3264 29.7105 37.6518 28.5548 39.1033C28.5444 39.1165 28.534 39.1296 28.5236 39.1428C28.4419 39.2461 28.3621 39.35 28.2841 39.4545C26.8901 41.3333 25.7992 42.8788 25.0114 44.0909H24.1023V9.72726H13.375V102.818H23.7386ZM26.7471 83.0909C27.7147 85.2716 28.9143 87.1708 30.3462 88.7884C31.1596 89.7074 32.048 90.5355 33.0114 91.2727C33.4839 91.6295 33.9733 91.9579 34.4796 92.258C34.4976 92.2687 34.5157 92.2793 34.5338 92.29C35.8002 93.0336 37.1717 93.6005 38.6483 93.9906C40.2777 94.4211 42.0351 94.6364 43.9204 94.6364C48.4053 94.6364 52.1477 93.4545 55.1477 91.0909C58.178 88.697 60.4508 85.4848 61.9659 81.4545C63.5114 77.3939 64.2841 72.8788 64.2841 67.9091C64.2841 63 63.5265 58.5758 62.0114 54.6364C60.5265 50.6667 58.269 47.5303 55.2386 45.2273C52.2386 42.8939 48.4659 41.7273 43.9204 41.7273C41.9587 41.7273 40.1378 41.9508 38.4578 42.3979C37.0214 42.7802 35.688 43.3258 34.4576 44.0349C34.4512 44.0386 34.4449 44.0422 34.4385 44.0459C33.9137 44.3493 33.4077 44.6825 32.9204 45.0454C31.9443 45.7626 31.0468 46.5746 30.2279 47.4816C28.8002 49.0629 27.6113 50.9326 26.6611 53.0909C26.4981 53.4612 26.3421 53.84 26.1932 54.2273C24.678 58.1364 23.9204 62.697 23.9204 67.9091C23.9204 73.1818 24.6932 77.8333 26.2386 81.8636C26.4003 82.2822 26.5698 82.6913 26.7471 83.0909ZM34.6377 78.63C35.669 81.295 36.9982 82.9832 38.4566 84.1068C39.6264 84.9828 41.2728 85.6364 43.9204 85.6364C46.7507 85.6364 48.4301 84.9254 49.5769 84.0222M34.6377 78.63C33.5659 75.8299 32.9204 72.3108 32.9204 67.9091C32.9204 63.5485 33.5564 60.1334 34.5849 57.4799L34.5933 57.4581C35.5825 54.8861 36.8601 53.3189 38.2491 52.2984L38.273 52.2808L38.2968 52.2631C39.4491 51.4048 41.1369 50.7273 43.9204 50.7273C46.8701 50.7273 48.5858 51.4546 49.7132 52.3314L49.7528 52.3623L49.7929 52.3927C51.3192 53.5527 52.6228 55.2256 53.5818 57.7894L53.5963 57.8284L53.6112 57.8672C54.6709 60.6221 55.2841 63.9273 55.2841 67.9091C55.2841 71.9403 54.6591 75.351 53.5545 78.2532L53.548 78.2703L53.5415 78.2875C52.5367 80.9606 51.1753 82.7567 49.5779 84.0215" fill="url(#paint0_linear_242_438)"/>
</g>
<defs>
<filter id="filter0_d_242_438" x="0.375" y="0.727264" width="87.6362" height="120.545" filterUnits="userSpaceOnUse" color-interpolation-filters="sRGB">
<feFlood flood-opacity="0" result="BackgroundImageFix"/>
<feColorMatrix in="SourceAlpha" type="matrix" values="0 0 0 0 0 0 0 0 0 0 0 0 0 0 0 0 0 0 127 0" result="hardAlpha"/>
<feOffset dy="4"/>
<feGaussianBlur stdDeviation="2"/>
<feComposite in2="hardAlpha" operator="out"/>
<feColorMatrix type="matrix" values="0 0 0 0 0 0 0 0 0 0 0 0 0 0 0 0 0 0 0.25 0"/>
<feBlend mode="normal" in2="BackgroundImageFix" result="effect1_dropShadow_242_438"/>
<feBlend mode="normal" in="SourceGraphic" in2="effect1_dropShadow_242_438" result="shape"/>
</filter>
<linearGradient id="paint0_linear_242_438" x1="-193.773" y1="-21.1818" x2="-193.773" y2="133.818" gradientUnits="userSpaceOnUse">
<stop stop-color="#EEA325"/>
<stop offset="0.515625" stop-color="#FF6000"/>
<stop offset="1" stop-color="#FF0000"/>
</linearGradient>
</defs>
</svg>
