<svg width="40" height="40" viewBox="0 0 40 40" fill="none" xmlns="http://www.w3.org/2000/svg">
<path d="M28.3333 3.3335H11.6666C7.06421 3.3335 3.33325 7.06446 3.33325 11.6668V28.3335C3.33325 32.9359 7.06421 36.6668 11.6666 36.6668H28.3333C32.9356 36.6668 36.6666 32.9359 36.6666 28.3335V11.6668C36.6666 7.06446 32.9356 3.3335 28.3333 3.3335Z" stroke="white" stroke-width="2" stroke-linecap="round" stroke-linejoin="round"/>
<path d="M26.6667 18.95C26.8724 20.3371 26.6355 21.7537 25.9897 22.9984C25.3438 24.243 24.322 25.2524 23.0695 25.8828C21.8169 26.5132 20.3975 26.7327 19.0131 26.5099C17.6286 26.2871 16.3497 25.6335 15.3581 24.6419C14.3666 23.6504 13.713 22.3715 13.4902 20.987C13.2674 19.6026 13.4869 18.1832 14.1173 16.9306C14.7477 15.6781 15.7571 14.6562 17.0017 14.0104C18.2464 13.3646 19.663 13.1277 21.0501 13.3333C22.465 13.5432 23.7748 14.2025 24.7862 15.2139C25.7976 16.2253 26.4569 17.5351 26.6667 18.95Z" stroke="white" stroke-width="2" stroke-linecap="round" stroke-linejoin="round"/>
<path d="M29.1667 10.8335H29.1834" stroke="white" stroke-width="2" stroke-linecap="round" stroke-linejoin="round"/>
</svg>
