<svg width="62" height="63" viewBox="0 0 62 63" fill="none" xmlns="http://www.w3.org/2000/svg">
<path d="M51 53V48C51 45.3478 49.9464 42.8043 48.0711 40.9289C46.1957 39.0536 43.6522 38 41 38H21C18.3478 38 15.8043 39.0536 13.9289 40.9289C12.0536 42.8043 11 45.3478 11 48V53" stroke="white" stroke-width="2" stroke-linecap="round" stroke-linejoin="round"/>
<path d="M31 28C36.5228 28 41 23.5228 41 18C41 12.4772 36.5228 8 31 8C25.4772 8 21 12.4772 21 18C21 23.5228 25.4772 28 31 28Z" stroke="white" stroke-width="2" stroke-linecap="round" stroke-linejoin="round"/>
<path d="M31 61.2491C47.5685 61.2491 61 47.8177 61 31.2491C61 14.6806 47.5685 1.24911 31 1.24911C14.4315 1.24911 1 14.6806 1 31.2491C1 47.8177 14.4315 61.2491 31 61.2491Z" stroke="white" stroke-width="2" stroke-linecap="round" stroke-linejoin="round"/>
</svg>
