<svg
  class="food-hub-stroke"
  width="478"
  height="99"
  viewBox="0 0 478 99"
  fill="none"
  xmlns="http://www.w3.org/2000/svg"
>
  <g filter="url(#filter0_d_377_628)">
    <path
      fill-rule="evenodd"
      clip-rule="evenodd"
      d="M408.36 96.9898V0.75H433.247V21.8208C436.502 20.5807 440.093 20.124 443.721 20.124C450.18 20.124 456.186 21.7609 461.462 25.2194C466.691 28.6461 470.629 33.4364 473.351 39.2744C476.11 45.19 477.35 51.8749 477.35 59.1082C477.35 66.385 476.113 73.1047 473.358 79.0449L473.355 79.0525L473.351 79.0601C470.638 84.8794 466.731 89.6689 461.553 93.1207L461.538 93.131L461.522 93.1411C456.274 96.6042 450.302 98.2499 443.879 98.2499C440.067 98.2499 436.311 97.7427 432.932 96.3726V96.9898H408.36ZM425.135 89.193V79.8998H426.237C426.92 81.0023 427.891 82.3937 429.151 84.0738C429.198 84.1345 429.245 84.1949 429.292 84.2552C429.301 84.2663 429.31 84.2774 429.319 84.2885C430.25 85.4563 431.454 86.5374 432.932 87.532C433.438 87.8727 433.976 88.2032 434.546 88.5235C434.723 88.6209 434.904 88.7146 435.09 88.8046C437.358 89.9036 440.288 90.4531 443.879 90.4531C448.919 90.4531 453.369 89.1798 457.228 86.6334C461.087 84.0607 464.106 80.4379 466.285 75.7651C468.464 71.066 469.553 65.5137 469.553 59.1082C469.553 52.7552 468.464 47.2423 466.285 42.5694C464.106 37.8966 461.074 34.2869 457.189 31.7405C453.303 29.194 448.814 27.9208 443.721 27.9208C440.08 27.9208 437.135 28.482 434.885 29.6044C434.702 29.6958 434.523 29.7909 434.349 29.8897C433.967 30.105 433.6 30.3254 433.247 30.551C431.622 31.5901 430.308 32.7383 429.307 33.9958C429.298 34.0072 429.289 34.0186 429.28 34.03C429.209 34.1194 429.14 34.2095 429.073 34.3C427.865 35.9277 426.92 37.2665 426.237 38.3166H425.45V8.54684H416.157V89.193H425.135ZM427.741 72.1029C428.579 73.9921 429.619 75.6374 430.859 77.0387C431.564 77.8349 432.333 78.5523 433.168 79.1909C433.577 79.5001 434.001 79.7846 434.44 80.0445C434.456 80.0538 434.471 80.063 434.487 80.0722C435.584 80.7165 436.772 81.2076 438.051 81.5455C439.463 81.9185 440.985 82.1049 442.619 82.1049C446.504 82.1049 449.746 81.0811 452.345 79.0334C454.97 76.9595 456.939 74.1768 458.252 70.6853C459.591 67.1675 460.26 63.256 460.26 58.9507C460.26 54.6978 459.604 50.8651 458.291 47.4523C457.005 44.0133 455.049 41.2962 452.424 39.301C449.825 37.2796 446.557 36.2689 442.619 36.2689C440.919 36.2689 439.342 36.4626 437.886 36.8499C436.642 37.1811 435.487 37.6538 434.421 38.2681C434.415 38.2713 434.41 38.2744 434.404 38.2776C433.95 38.5405 433.511 38.8291 433.089 39.1435C432.244 39.7648 431.466 40.4683 430.757 41.2541C429.52 42.6239 428.49 44.2437 427.667 46.1134C427.525 46.4342 427.39 46.7624 427.261 47.0979C425.949 50.4844 425.292 54.4353 425.292 58.9507C425.292 63.5185 425.962 67.5482 427.301 71.0397C427.441 71.4023 427.588 71.7567 427.741 72.1029ZM434.577 68.2383C435.47 70.5471 436.622 72.0096 437.885 72.983C438.899 73.7419 440.325 74.3081 442.619 74.3081C445.071 74.3081 446.526 73.6922 447.519 72.9097M434.577 68.2383C433.648 65.8126 433.089 62.764 433.089 58.9507C433.089 55.173 433.64 52.2145 434.531 49.9157L434.538 49.8968C435.395 47.6686 436.502 46.311 437.706 45.4269L437.726 45.4116L437.747 45.3963C438.745 44.6527 440.207 44.0658 442.619 44.0658C445.174 44.0658 446.66 44.6959 447.637 45.4555L447.671 45.4822L447.706 45.5086C449.028 46.5135 450.158 47.9627 450.988 50.1838L451.001 50.2176L451.014 50.2512C451.932 52.6378 452.463 55.5012 452.463 58.9507C452.463 62.443 451.922 65.3977 450.965 67.9119L450.959 67.9268L450.954 67.9416C450.083 70.2574 448.904 71.8134 447.52 72.9091"
      fill="url(#paint0_linear_377_628)"
    />
  </g>
  <g filter="url(#filter1_d_377_628)">
    <path
      fill-rule="evenodd"
      clip-rule="evenodd"
      d="M388.582 64.4637C388.582 66.9953 388.211 69.2267 387.469 71.1579C387.103 72.1104 386.647 72.9898 386.101 73.7963C385.316 74.9731 384.44 76.0035 383.473 76.8876C382.433 77.8376 381.288 78.6185 380.037 79.2304C378.964 79.7611 377.898 80.1725 376.841 80.4648C376.826 80.4691 376.81 80.4733 376.795 80.4775C376.776 80.4828 376.757 80.488 376.737 80.4932C375.476 80.8327 374.226 81.0024 372.988 81.0024C369.129 81.0024 365.953 79.6898 363.459 77.0646C360.991 74.4394 359.757 70.9217 359.757 66.5113V28.7085H350.464V67.1414C350.464 72.2868 351.304 76.5527 352.984 79.9392C354.664 83.2995 356.974 85.8197 359.915 87.4998C362.855 89.1537 366.215 89.9806 369.995 89.9806C373.882 89.9806 377.199 89.2108 379.945 87.6711C380.231 87.5107 380.511 87.342 380.785 87.1649C380.972 87.0442 381.155 86.9195 381.336 86.791C381.945 86.3532 382.521 85.8963 383.064 85.4205C383.072 85.4137 383.08 85.407 383.088 85.4002C385.205 83.5411 386.827 81.3927 387.952 78.9548H388.582V89.193H397.875V28.7085H388.582V64.4637ZM380.785 95.8791V96.9899H405.672V20.9116H380.785V64.4637C380.785 67.1224 380.209 68.5927 379.646 69.4234L379.63 69.4473L379.614 69.4713C378.679 70.8727 377.675 71.7061 376.611 72.2265L376.596 72.2339L376.581 72.2414C375.101 72.9731 373.928 73.2056 372.988 73.2056C371.119 73.2056 370.04 72.6657 369.126 71.7098C368.313 70.8376 367.554 69.3895 367.554 66.5113V20.9116H342.667V67.1414C342.667 73.0772 343.628 78.6244 346 83.4044L346.005 83.4152L346.01 83.4261C348.301 88.0066 351.625 91.7431 356.046 94.2693L356.069 94.2824L356.092 94.2953C360.335 96.6819 365.041 97.7774 369.995 97.7774C373.78 97.7774 377.426 97.1962 380.785 95.8791Z"
      fill="url(#paint1_linear_377_628)"
    />
  </g>
  <g filter="url(#filter2_d_377_628)">
    <path
      fill-rule="evenodd"
      clip-rule="evenodd"
      d="M261.844 96.9898V0.75H287.203V36.6627H314.61V0.75H339.97V96.9898H314.61V60.9196H287.203V96.9898H261.844ZM279.406 53.1227H322.407V89.193H332.173V8.54684H322.407V44.4596H279.406V8.54684H269.641V89.193H279.406V53.1227Z"
      fill="url(#paint2_linear_377_628)"
    />
  </g>
  <g filter="url(#filter3_d_377_628)">
    <path
      fill-rule="evenodd"
      clip-rule="evenodd"
      d="M204.689 93.131L204.674 93.1207C199.496 89.6689 195.589 84.8794 192.875 79.0601L192.872 79.0525L192.868 79.0449C190.114 73.1047 188.876 66.385 188.876 59.1082C188.876 51.8749 190.117 45.19 192.875 39.2744C195.598 33.4364 199.536 28.6461 204.764 25.2194C210.041 21.7609 216.046 20.124 222.505 20.124C226.129 20.124 229.725 20.5794 232.98 21.8299V0.75H257.867V96.9898H233.295V96.3726C229.916 97.7427 226.16 98.2499 222.348 98.2499C215.924 98.2499 209.953 96.6042 204.704 93.1411L204.689 93.131ZM241.092 89.193H250.07V8.54684H240.777V38.3166H239.989C239.307 37.2665 238.348 35.9277 237.114 34.3C237.054 34.2173 236.992 34.135 236.929 34.0532C236.92 34.0417 236.911 34.0303 236.902 34.0188C235.923 32.7596 234.615 31.6097 232.98 30.569C232.615 30.3372 232.235 30.1107 231.838 29.8897C231.648 29.7808 231.453 29.6763 231.252 29.5764C229.032 28.4727 226.116 27.9208 222.505 27.9208C217.412 27.9208 212.923 29.194 209.038 31.7405C205.153 34.2869 202.121 37.8966 199.942 42.5694C197.763 47.2423 196.673 52.7552 196.673 59.1082C196.673 65.5137 197.763 71.066 199.942 75.7651C202.121 80.4379 205.14 84.0607 208.999 86.6334C212.858 89.1798 217.307 90.4531 222.348 90.4531C225.939 90.4531 228.869 89.9036 231.136 88.8046C231.322 88.7146 231.504 88.6209 231.68 88.5235C232.251 88.2032 232.789 87.8727 233.295 87.532C234.772 86.5375 235.977 85.4563 236.908 84.2885C236.917 84.2774 236.925 84.2663 236.934 84.2552C236.982 84.1949 237.029 84.1345 237.075 84.0738C238.335 82.3937 239.307 81.0023 239.989 79.8998H241.092V89.193ZM231.787 80.0445C232.225 79.7846 232.649 79.5001 233.059 79.1909C233.893 78.5523 234.663 77.8349 235.367 77.0387C236.608 75.6374 237.647 73.9921 238.485 72.1029C238.639 71.7567 238.786 71.4023 238.926 71.0397C240.265 67.5482 240.934 63.5185 240.934 58.9507C240.934 54.4353 240.278 50.4844 238.965 47.0979C238.836 46.7624 238.701 46.4342 238.56 46.1134C237.737 44.2437 236.707 42.6239 235.47 41.2541C234.76 40.4683 233.983 39.7648 233.137 39.1435C232.723 38.835 232.293 38.5513 231.848 38.2925C231.81 38.2707 231.773 38.2492 231.735 38.2278C230.671 37.6227 229.518 37.1577 228.276 36.833C226.839 36.457 225.282 36.2689 223.608 36.2689C219.67 36.2689 216.389 37.2796 213.763 39.301C211.164 41.2962 209.209 44.0133 207.896 47.4523C206.61 50.8651 205.967 54.6978 205.967 58.9507C205.967 63.256 206.623 67.1675 207.935 70.6853C209.274 74.1768 211.243 76.9595 213.842 79.0334C216.467 81.0811 219.723 82.1049 223.608 82.1049C225.241 82.1049 226.764 81.9184 228.175 81.5455C229.454 81.2075 230.643 80.7165 231.74 80.0722C231.755 80.063 231.771 80.0538 231.787 80.0445ZM228.34 72.9837C227.327 73.7423 225.901 74.3081 223.608 74.3081C221.183 74.3081 219.702 73.705 218.669 72.9104C217.308 71.8131 216.124 70.2482 215.228 67.9264C214.292 65.4056 213.763 62.4447 213.763 58.9507C213.763 55.4911 214.285 52.6151 215.186 50.2171C216.049 47.9635 217.196 46.4951 218.511 45.4857L218.52 45.4787C219.538 44.6951 221.055 44.0658 223.608 44.0658C226.019 44.0658 227.481 44.6527 228.48 45.3963L228.5 45.4116L228.521 45.4269C229.724 46.311 230.831 47.6686 231.688 49.8968L231.692 49.9062L231.695 49.9157C232.586 52.2145 233.137 55.173 233.137 58.9507C233.137 62.764 232.578 65.8126 231.65 68.2383C230.756 70.5476 229.604 72.0104 228.34 72.9837Z"
      fill="url(#paint3_linear_377_628)"
    />
  </g>
  <g filter="url(#filter4_d_377_628)">
    <path
      fill-rule="evenodd"
      clip-rule="evenodd"
      d="M143.542 86.5547C147.664 89.1536 152.455 90.4531 157.915 90.4531C163.376 90.4531 168.154 89.1536 172.249 86.5547C176.37 83.9557 179.573 80.3198 181.857 75.647C184.167 70.9741 185.322 65.5137 185.322 59.2657C185.322 52.9653 184.167 47.4655 181.857 42.7664C179.573 38.0673 176.37 34.4182 172.249 31.8193C168.154 29.2203 163.376 27.9209 157.915 27.9209C152.455 27.9209 147.664 29.2203 143.542 31.8193C139.447 34.4182 136.244 38.0673 133.934 42.7664C131.65 47.4655 130.508 52.9653 130.508 59.2657C130.508 65.5137 131.65 70.9741 133.934 75.647C136.244 80.3198 139.447 83.9557 143.542 86.5547ZM176.416 25.2296C170.922 21.7457 164.659 20.124 157.915 20.124C151.166 20.124 144.896 21.748 139.384 25.2241L139.374 25.2302L139.365 25.2362C133.962 28.6647 129.828 33.4466 126.937 39.3265L126.929 39.3423L126.922 39.3581C124.026 45.3157 122.711 52.0242 122.711 59.2657C122.711 66.4644 124.03 73.1383 126.929 79.0707L126.937 79.0866L126.945 79.1024C129.839 84.9563 133.973 89.7162 139.365 93.1378L139.374 93.1438L139.384 93.1498C144.896 96.626 151.166 98.2499 157.915 98.2499C164.66 98.2499 170.923 96.6279 176.418 93.143C181.838 89.7229 185.981 84.9582 188.854 79.0874C191.785 73.151 193.119 66.4707 193.119 59.2657C193.119 52.0183 191.789 45.3037 188.862 39.3422C185.992 33.4444 181.848 28.6569 176.416 25.2296ZM168.154 78.9153C165.476 81.0418 162.063 82.105 157.915 82.105C153.768 82.105 150.355 81.0418 147.677 78.9153C144.999 76.7889 143.017 73.9931 141.731 70.5278C140.445 67.0626 139.801 63.3085 139.801 59.2657C139.801 55.2229 140.445 51.4558 141.731 47.9643C143.017 44.4727 144.999 41.6506 147.677 39.498C150.355 37.3453 153.768 36.269 157.915 36.269C162.063 36.269 165.476 37.3453 168.154 39.498C170.831 41.6506 172.813 44.4727 174.1 47.9643C175.386 51.4558 176.029 55.2229 176.029 59.2657C176.029 63.3085 175.386 67.0626 174.1 70.5278C172.813 73.9931 170.831 76.7889 168.154 78.9153ZM157.915 74.3081C160.69 74.3081 162.282 73.6222 163.305 72.8096C164.778 71.6397 165.958 70.0576 166.79 67.8145C167.725 65.2954 168.232 62.4692 168.232 59.2657C168.232 56.063 167.726 53.2164 166.784 50.6597C165.944 48.3808 164.753 46.7683 163.268 45.5747C162.246 44.7528 160.668 44.0658 157.915 44.0658C155.163 44.0658 153.585 44.7528 152.562 45.5747C151.077 46.7683 149.887 48.3808 149.047 50.6597C148.105 53.2164 147.598 56.063 147.598 59.2657C147.598 62.4692 148.105 65.2954 149.04 67.8145C149.873 70.0576 151.053 71.6397 152.526 72.8096C153.549 73.6222 155.141 74.3081 157.915 74.3081Z"
      fill="url(#paint4_linear_377_628)"
    />
  </g>
  <g filter="url(#filter5_d_377_628)">
    <path
      fill-rule="evenodd"
      clip-rule="evenodd"
      d="M77.3778 86.5547C81.4994 89.1536 86.2904 90.4531 91.7508 90.4531C97.2112 90.4531 101.989 89.1536 106.084 86.5547C110.206 83.9557 113.409 80.3198 115.693 75.647C118.003 70.9741 119.158 65.5137 119.158 59.2657C119.158 52.9653 118.003 47.4655 115.693 42.7664C113.409 38.0673 110.206 34.4182 106.084 31.8193C101.989 29.2203 97.2112 27.9209 91.7508 27.9209C86.2904 27.9209 81.4994 29.2203 77.3778 31.8193C73.2825 34.4182 70.0798 38.0673 67.7696 42.7664C65.4857 47.4655 64.3437 52.9653 64.3437 59.2657C64.3437 65.5137 65.4857 70.9741 67.7696 75.647C70.0798 80.3198 73.2825 83.9557 77.3778 86.5547ZM122.697 39.3422C125.625 45.3037 126.955 52.0183 126.955 59.2657C126.955 66.4707 125.621 73.151 122.689 79.0874C119.816 84.9582 115.673 89.7229 110.254 93.143C104.759 96.6279 98.4958 98.2499 91.7508 98.2499C85.0014 98.2499 78.7319 96.626 73.2191 93.1498L73.2096 93.1438L73.2001 93.1378C67.8085 89.7162 63.6743 84.9563 60.7803 79.1024L60.7724 79.0866L60.7647 79.0707C57.8651 73.1383 56.5469 66.4644 56.5469 59.2657C56.5469 52.0242 57.8616 45.3157 60.7572 39.3581L60.7648 39.3423L60.7726 39.3265C63.6633 33.4466 67.7976 28.6647 73.2001 25.2362L73.2096 25.2302L73.2191 25.2241C78.7319 21.748 85.0014 20.124 91.7508 20.124C98.4949 20.124 104.757 21.7457 110.252 25.2296C115.683 28.6569 119.828 33.4444 122.697 39.3422ZM101.989 78.9153C99.3114 81.0418 95.8986 82.105 91.7508 82.105C87.603 82.105 84.1902 81.0418 81.5125 78.9153C78.8348 76.7889 76.8528 73.9931 75.5664 70.5278C74.2801 67.0626 73.6369 63.3085 73.6369 59.2657C73.6369 55.2229 74.2801 51.4558 75.5664 47.9643C76.8528 44.4727 78.8348 41.6506 81.5125 39.498C84.1902 37.3453 87.603 36.269 91.7508 36.269C95.8986 36.269 99.3114 37.3453 101.989 39.498C104.667 41.6506 106.649 44.4727 107.935 47.9643C109.221 51.4558 109.865 55.2229 109.865 59.2657C109.865 63.3085 109.221 67.0626 107.935 70.5278C106.649 73.9931 104.667 76.7889 101.989 78.9153ZM91.7508 74.3081C94.525 74.3081 96.117 73.6222 97.1404 72.8096C98.6136 71.6397 99.793 70.0576 100.626 67.8145C101.561 65.2954 102.068 62.4692 102.068 59.2657C102.068 56.063 101.561 53.2164 100.619 50.6597C99.7794 48.3808 98.5887 46.7683 97.1039 45.5747C96.0816 44.7528 94.5031 44.0658 91.7508 44.0658C88.9985 44.0658 87.42 44.7528 86.3977 45.5747C84.9129 46.7683 83.7221 48.3808 82.8825 50.6597C81.9406 53.2164 81.4338 56.063 81.4338 59.2657C81.4338 62.4692 81.9408 65.2954 82.8759 67.8145C83.7086 70.0576 84.888 71.6397 86.3612 72.8096C87.3846 73.6222 88.9766 74.3081 91.7508 74.3081Z"
      fill="url(#paint5_linear_377_628)"
    />
  </g>
  <g filter="url(#filter6_d_377_628)">
    <path
      fill-rule="evenodd"
      clip-rule="evenodd"
      d="M0 96.9898V0.75H63.9498V25.0068H25.3594V36.6627H60.3271V60.9196H25.3594V96.9898H0ZM17.5626 53.1227H52.5302V44.4596H17.5626V17.21H56.153V8.54684H7.79684V89.193H17.5626V53.1227Z"
      fill="url(#paint6_linear_377_628)"
    />
  </g>
  <defs>
    <filter
      id="filter0_d_377_628"
      x="404.36"
      y="0.75"
      width="76.9902"
      height="105.5"
      filterUnits="userSpaceOnUse"
      color-interpolation-filters="sRGB"
    >
      <feFlood flood-opacity="0" result="BackgroundImageFix" />
      <feColorMatrix
        in="SourceAlpha"
        type="matrix"
        values="0 0 0 0 0 0 0 0 0 0 0 0 0 0 0 0 0 0 127 0"
        result="hardAlpha"
      />
      <feOffset dy="4" />
      <feGaussianBlur stdDeviation="2" />
      <feComposite in2="hardAlpha" operator="out" />
      <feColorMatrix
        type="matrix"
        values="0 0 0 0 0 0 0 0 0 0 0 0 0 0 0 0 0 0 0.25 0"
      />
      <feBlend
        mode="normal"
        in2="BackgroundImageFix"
        result="effect1_dropShadow_377_628"
      />
      <feBlend
        mode="normal"
        in="SourceGraphic"
        in2="effect1_dropShadow_377_628"
        result="shape"
      />
    </filter>
    <filter
      id="filter1_d_377_628"
      x="338.667"
      y="20.9116"
      width="71.0049"
      height="84.8657"
      filterUnits="userSpaceOnUse"
      color-interpolation-filters="sRGB"
    >
      <feFlood flood-opacity="0" result="BackgroundImageFix" />
      <feColorMatrix
        in="SourceAlpha"
        type="matrix"
        values="0 0 0 0 0 0 0 0 0 0 0 0 0 0 0 0 0 0 127 0"
        result="hardAlpha"
      />
      <feOffset dy="4" />
      <feGaussianBlur stdDeviation="2" />
      <feComposite in2="hardAlpha" operator="out" />
      <feColorMatrix
        type="matrix"
        values="0 0 0 0 0 0 0 0 0 0 0 0 0 0 0 0 0 0 0.25 0"
      />
      <feBlend
        mode="normal"
        in2="BackgroundImageFix"
        result="effect1_dropShadow_377_628"
      />
      <feBlend
        mode="normal"
        in="SourceGraphic"
        in2="effect1_dropShadow_377_628"
        result="shape"
      />
    </filter>
    <filter
      id="filter2_d_377_628"
      x="257.844"
      y="0.75"
      width="86.126"
      height="104.24"
      filterUnits="userSpaceOnUse"
      color-interpolation-filters="sRGB"
    >
      <feFlood flood-opacity="0" result="BackgroundImageFix" />
      <feColorMatrix
        in="SourceAlpha"
        type="matrix"
        values="0 0 0 0 0 0 0 0 0 0 0 0 0 0 0 0 0 0 127 0"
        result="hardAlpha"
      />
      <feOffset dy="4" />
      <feGaussianBlur stdDeviation="2" />
      <feComposite in2="hardAlpha" operator="out" />
      <feColorMatrix
        type="matrix"
        values="0 0 0 0 0 0 0 0 0 0 0 0 0 0 0 0 0 0 0.25 0"
      />
      <feBlend
        mode="normal"
        in2="BackgroundImageFix"
        result="effect1_dropShadow_377_628"
      />
      <feBlend
        mode="normal"
        in="SourceGraphic"
        in2="effect1_dropShadow_377_628"
        result="shape"
      />
    </filter>
    <filter
      id="filter3_d_377_628"
      x="184.876"
      y="0.75"
      width="76.9902"
      height="105.5"
      filterUnits="userSpaceOnUse"
      color-interpolation-filters="sRGB"
    >
      <feFlood flood-opacity="0" result="BackgroundImageFix" />
      <feColorMatrix
        in="SourceAlpha"
        type="matrix"
        values="0 0 0 0 0 0 0 0 0 0 0 0 0 0 0 0 0 0 127 0"
        result="hardAlpha"
      />
      <feOffset dy="4" />
      <feGaussianBlur stdDeviation="2" />
      <feComposite in2="hardAlpha" operator="out" />
      <feColorMatrix
        type="matrix"
        values="0 0 0 0 0 0 0 0 0 0 0 0 0 0 0 0 0 0 0.25 0"
      />
      <feBlend
        mode="normal"
        in2="BackgroundImageFix"
        result="effect1_dropShadow_377_628"
      />
      <feBlend
        mode="normal"
        in="SourceGraphic"
        in2="effect1_dropShadow_377_628"
        result="shape"
      />
    </filter>
    <filter
      id="filter4_d_377_628"
      x="118.711"
      y="20.124"
      width="78.4077"
      height="86.126"
      filterUnits="userSpaceOnUse"
      color-interpolation-filters="sRGB"
    >
      <feFlood flood-opacity="0" result="BackgroundImageFix" />
      <feColorMatrix
        in="SourceAlpha"
        type="matrix"
        values="0 0 0 0 0 0 0 0 0 0 0 0 0 0 0 0 0 0 127 0"
        result="hardAlpha"
      />
      <feOffset dy="4" />
      <feGaussianBlur stdDeviation="2" />
      <feComposite in2="hardAlpha" operator="out" />
      <feColorMatrix
        type="matrix"
        values="0 0 0 0 0 0 0 0 0 0 0 0 0 0 0 0 0 0 0.25 0"
      />
      <feBlend
        mode="normal"
        in2="BackgroundImageFix"
        result="effect1_dropShadow_377_628"
      />
      <feBlend
        mode="normal"
        in="SourceGraphic"
        in2="effect1_dropShadow_377_628"
        result="shape"
      />
    </filter>
    <filter
      id="filter5_d_377_628"
      x="52.5469"
      y="20.124"
      width="78.4077"
      height="86.126"
      filterUnits="userSpaceOnUse"
      color-interpolation-filters="sRGB"
    >
      <feFlood flood-opacity="0" result="BackgroundImageFix" />
      <feColorMatrix
        in="SourceAlpha"
        type="matrix"
        values="0 0 0 0 0 0 0 0 0 0 0 0 0 0 0 0 0 0 127 0"
        result="hardAlpha"
      />
      <feOffset dy="4" />
      <feGaussianBlur stdDeviation="2" />
      <feComposite in2="hardAlpha" operator="out" />
      <feColorMatrix
        type="matrix"
        values="0 0 0 0 0 0 0 0 0 0 0 0 0 0 0 0 0 0 0.25 0"
      />
      <feBlend
        mode="normal"
        in2="BackgroundImageFix"
        result="effect1_dropShadow_377_628"
      />
      <feBlend
        mode="normal"
        in="SourceGraphic"
        in2="effect1_dropShadow_377_628"
        result="shape"
      />
    </filter>
    <filter
      id="filter6_d_377_628"
      x="-4"
      y="0.75"
      width="71.9497"
      height="104.24"
      filterUnits="userSpaceOnUse"
      color-interpolation-filters="sRGB"
    >
      <feFlood flood-opacity="0" result="BackgroundImageFix" />
      <feColorMatrix
        in="SourceAlpha"
        type="matrix"
        values="0 0 0 0 0 0 0 0 0 0 0 0 0 0 0 0 0 0 127 0"
        result="hardAlpha"
      />
      <feOffset dy="4" />
      <feGaussianBlur stdDeviation="2" />
      <feComposite in2="hardAlpha" operator="out" />
      <feColorMatrix
        type="matrix"
        values="0 0 0 0 0 0 0 0 0 0 0 0 0 0 0 0 0 0 0.25 0"
      />
      <feBlend
        mode="normal"
        in2="BackgroundImageFix"
        result="effect1_dropShadow_377_628"
      />
      <feBlend
        mode="normal"
        in="SourceGraphic"
        in2="effect1_dropShadow_377_628"
        result="shape"
      />
    </filter>
    <linearGradient
      id="paint0_linear_377_628"
      x1="236.701"
      y1="-18.2302"
      x2="236.701"
      y2="116.049"
      gradientUnits="userSpaceOnUse"
    >
      <stop stop-color="#EEA325" />
      <stop offset="0.515625" stop-color="#FF6000" />
      <stop offset="1" stop-color="#FF0000" />
    </linearGradient>
    <linearGradient
      id="paint1_linear_377_628"
      x1="236.701"
      y1="-18.2301"
      x2="236.701"
      y2="116.049"
      gradientUnits="userSpaceOnUse"
    >
      <stop stop-color="#EEA325" />
      <stop offset="0.515625" stop-color="#FF6000" />
      <stop offset="1" stop-color="#FF0000" />
    </linearGradient>
    <linearGradient
      id="paint2_linear_377_628"
      x1="236.701"
      y1="-18.2302"
      x2="236.701"
      y2="116.049"
      gradientUnits="userSpaceOnUse"
    >
      <stop stop-color="#EEA325" />
      <stop offset="0.515625" stop-color="#FF6000" />
      <stop offset="1" stop-color="#FF0000" />
    </linearGradient>
    <linearGradient
      id="paint3_linear_377_628"
      x1="236.701"
      y1="-18.2302"
      x2="236.701"
      y2="116.049"
      gradientUnits="userSpaceOnUse"
    >
      <stop stop-color="#EEA325" />
      <stop offset="0.515625" stop-color="#FF6000" />
      <stop offset="1" stop-color="#FF0000" />
    </linearGradient>
    <linearGradient
      id="paint4_linear_377_628"
      x1="236.701"
      y1="-18.2301"
      x2="236.701"
      y2="116.049"
      gradientUnits="userSpaceOnUse"
    >
      <stop stop-color="#EEA325" />
      <stop offset="0.515625" stop-color="#FF6000" />
      <stop offset="1" stop-color="#FF0000" />
    </linearGradient>
    <linearGradient
      id="paint5_linear_377_628"
      x1="236.701"
      y1="-18.2301"
      x2="236.701"
      y2="116.049"
      gradientUnits="userSpaceOnUse"
    >
      <stop stop-color="#EEA325" />
      <stop offset="0.515625" stop-color="#FF6000" />
      <stop offset="1" stop-color="#FF0000" />
    </linearGradient>
    <linearGradient
      id="paint6_linear_377_628"
      x1="236.701"
      y1="-18.2302"
      x2="236.701"
      y2="116.049"
      gradientUnits="userSpaceOnUse"
    >
      <stop stop-color="#EEA325" />
      <stop offset="0.515625" stop-color="#FF6000" />
      <stop offset="1" stop-color="#FF0000" />
    </linearGradient>
  </defs>
</svg>
